<?xml version="1.0" standalone="no"?>
<!DOCTYPE svg>

<svg width="170" height="220" version="1.1" xmlns="http://www.w3.org/2000/svg">
  <g transform="translate(10 210) scale(10 -10)">
    <polygon points="0 -0.5, -0.0975451610080669 -0.4903926402016147, -0.1913417161825472 -0.4619397662556424, -0.2777851165098029 -0.4157348061512714, -0.3535533905932749 -0.3535533905932726, -0.4157348061512733 -0.2777851165098, -0.4619397662556436 -0.1913417161825442, -0.4903926402016153 -0.0975451610080637, -0.5 0, -0.5 20, -0.4903926402016152 20.097545161008064, -0.4619397662556434 20.1913417161825457, -0.4157348061512727 20.2777851165098006, -0.3535533905932737 20.3535533905932731, -0.277785116509801 20.4157348061512742, -0.1913417161825449 20.461939766255643, -0.0975451610080641 20.4903926402016161, 0 20.5, 15 20.5, 15.097545161008064 20.4903926402016161, 15.1913417161825457 20.461939766255643, 15.2777851165098006 20.4157348061512742, 15.3535533905932731 20.3535533905932731, 15.4157348061512725 20.2777851165098006, 15.461939766255643 20.1913417161825457, 15.4903926402016161 20.097545161008064, 15.5 20, 15.5 16, 15.4903926402016161 15.902454838991936, 15.461939766255643 15.8086582838174543, 15.4157348061512725 15.7222148834901994, 15.3535533905932731 15.6464466094067269, 15.2777851165098006 15.5842651938487275, 15.1913417161825457 15.538060233744357, 15.097545161008064 15.5096073597983839, 15 15.5, 10.5 15.5, 10.5 14.5, 15 14.5, 15.097545161008064 14.4903926402016161, 15.1913417161825457 14.461939766255643, 15.2777851165098006 14.4157348061512725, 15.3535533905932731 14.3535533905932731, 15.4157348061512725 14.2777851165098006, 15.461939766255643 14.1913417161825457, 15.4903926402016161 14.097545161008064, 15.5 14, 15.5 0, 15.4903926402016161 -0.0975451610080641, 15.461939766255643 -0.1913417161825449, 15.4157348061512725 -0.2777851165098011, 15.3535533905932731 -0.3535533905932737, 15.2777851165098006 -0.4157348061512726, 15.1913417161825457 -0.4619397662556434, 15.097545161008064 -0.4903926402016152, 15 -0.5, 0 -0.5" fill="#70B6C3"/>
    <polygon points="0 0, 0 20, 15 20, 15 16, 10 16, 10 14, 15 14, 15 0, 0 0" fill="#1E7687"/>
  </g>
</svg>
