<?xml version="1.0" standalone="no"?>
<!DOCTYPE svg>

<svg width="100" height="100" version="1.1" xmlns="http://www.w3.org/2000/svg">
   <g transform="translate(0 100) scale(10, -10)">
    <polygon points="0 10, 1 10, 1 1, 10 1, 10 0, 0 0, 0 10" fill="#1E7687"/>
    <polygon points="8 8, 10 8, 10 10, 8 10, 8 8" fill="#1E7687"/>
    <polygon points="1 10, 8 10, 8 8, 10 8, 10 4, 1 4, 1 10" fill="#DB822D"/>
    <polygon points="2 9, 7 9, 7 5, 2 5, 2 9" fill="#FFFFFF"/>
    <polygon points="1 1, 10 1, 10 4, 1 4, 1 1" fill="#EDB885"/>
  </g>
</svg>
