<?xml version="1.0" standalone="no"?>
<!DOCTYPE svg>

<svg width="420" height="100" version="1.1" xmlns="http://www.w3.org/2000/svg">
   <g transform="translate(0 100) scale(10, -10)">
    <polygon points="0 0, 10 0, 15 5, 10 10, 0 10, 0 0" fill="#1E7687"/>
    <polygon points="10 0, 20 0, 20 10, 10 10, 5 5, 10 0" fill="#DB822D"/>
    <polygon points="10 10, 15 5, 10 0, 5 5, 10 10" fill="#7D7C5A"/>
    <g transform="translate(22 0)">
      <polygon points="10 0, 0 0, 0 10, 10 10, 5 5, 10 0" fill="#1E7687"/>
      <polygon points="10 0, 15 5, 10 10, 20 10, 20 0, 10 0" fill="#1E7687"/>
    </g>
  </g>
</svg>
